<svg width="60" height="60" viewBox="0 0 60 60" fill="none" xmlns="http://www.w3.org/2000/svg">
<circle cx="30" cy="30" r="30" fill="#1F7CFF"/>
<path d="M38 25H22C20.8954 25 20 25.8954 20 27V37C20 38.1046 20.8954 39 22 39H38C39.1046 39 40 38.1046 40 37V27C40 25.8954 39.1046 25 38 25Z" stroke="white" stroke-width="2" stroke-linecap="round" stroke-linejoin="round"/>
<path d="M34 39V23C34 22.4696 33.7893 21.9609 33.4142 21.5858C33.0391 21.2107 32.5304 21 32 21H28C27.4696 21 26.9609 21.2107 26.5858 21.5858C26.2107 21.9609 26 22.4696 26 23V39" stroke="white" stroke-width="2" stroke-linecap="round" stroke-linejoin="round"/>
</svg>
