<svg width="118" height="30" viewBox="0 0 118 30" fill="none" xmlns="http://www.w3.org/2000/svg">
<g clip-path="url(#clip0_202_67)">
<path fill-rule="evenodd" clip-rule="evenodd" d="M37.7095 23.6215L39.1805 20.1834C40.7694 21.3784 42.8864 21.9997 44.9751 21.9997C46.5169 21.9997 47.4928 21.4021 47.4928 20.4963C47.4693 17.9639 38.2564 19.9462 38.1857 13.5963C38.1621 10.3715 41.0099 7.88649 45.0458 7.88649C47.4457 7.88649 49.8408 8.48403 51.5523 9.84507L50.1756 13.3544C48.6103 12.349 46.663 11.6329 44.8101 11.6329C43.5512 11.6329 42.7214 12.2305 42.7214 12.994C42.745 15.479 52.0285 14.1179 52.1228 20.1834C52.1228 23.4793 49.3458 25.7983 45.357 25.7983C42.4338 25.7935 39.751 25.1012 37.7095 23.6215ZM94.1983 18.9409C93.4628 20.2308 92.0861 21.1129 90.4924 21.1129C88.1397 21.1129 86.2443 19.2017 86.2443 16.84C86.2443 14.4783 88.1444 12.5672 90.4924 12.5672C92.0814 12.5672 93.4628 13.4492 94.1983 14.7392L98.2578 12.4723C96.7396 9.75023 93.8164 7.88649 90.4924 7.88649C85.5748 7.88649 81.5861 11.8985 81.5861 16.8448C81.5861 21.791 85.5748 25.803 90.4924 25.803C93.84 25.803 96.7396 23.963 98.2578 21.2172L94.1983 18.9409ZM54.1644 0.455261H59.247V25.4616H54.1644V0.455261ZM100.252 0.455261V25.4616H105.335V17.9592L111.365 25.4616H117.872L110.201 16.5507L117.301 8.23742H111.078L105.33 15.1375V0.455261H100.252Z" fill="black"/>
<path d="M74.3486 18.9883C73.6131 20.2071 72.0949 21.1129 70.3834 21.1129C68.0307 21.1129 66.1353 19.2017 66.1353 16.84C66.1353 14.4783 68.0354 12.5672 70.3834 12.5672C72.0949 12.5672 73.6131 13.5204 74.3486 14.7629V18.9883ZM74.3486 8.24216V10.2719C73.5188 8.86341 71.4537 7.88174 69.2896 7.88174C64.8246 7.88174 61.312 11.8463 61.312 16.8163C61.312 21.7863 64.8246 25.7983 69.2896 25.7983C71.449 25.7983 73.5141 24.8214 74.3486 23.4081V25.4379H79.4313V8.24216H74.3486Z" fill="black"/>
<path fill-rule="evenodd" clip-rule="evenodd" d="M6.29422 18.9646C6.29422 20.7098 4.8939 22.1182 3.15883 22.1182C1.42375 22.1182 0.0234375 20.705 0.0234375 18.9646C0.0234375 17.2241 1.42375 15.8109 3.15883 15.8109H6.29422V18.9646ZM7.85955 18.9646C7.85955 17.2194 9.25987 15.8109 10.9949 15.8109C12.73 15.8109 14.1303 17.2194 14.1303 18.9646V26.8464C14.1303 28.5915 12.73 30 10.9949 30C9.25987 30 7.85955 28.5915 7.85955 26.8464V18.9646Z" fill="black"/>
<path fill-rule="evenodd" clip-rule="evenodd" d="M10.9951 6.3073C9.26001 6.3073 7.85969 4.89883 7.85969 3.15365C7.85969 1.40847 9.26001 0 10.9951 0C12.7302 0 14.1305 1.40847 14.1305 3.15365V6.3073H10.9951ZM10.9951 7.90547C12.7302 7.90547 14.1305 9.31394 14.1305 11.0591C14.1305 12.8043 12.7302 14.2128 10.9951 14.2128H3.13539C1.40032 14.2128 0 12.7996 0 11.0591C0 9.31868 1.40032 7.90547 3.13539 7.90547H10.9951Z" fill="black"/>
<path fill-rule="evenodd" clip-rule="evenodd" d="M23.5554 11.0591C23.5554 9.31394 24.9557 7.90547 26.6907 7.90547C28.4258 7.90547 29.8261 9.31394 29.8261 11.0591C29.8261 12.8043 28.4258 14.2128 26.6907 14.2128H23.5554V11.0591ZM21.99 11.0591C21.99 12.8043 20.5897 14.2128 18.8546 14.2128C17.1196 14.2128 15.7192 12.8043 15.7192 11.0591V3.15365C15.7192 1.40847 17.1196 0 18.8546 0C20.5897 0 21.99 1.40847 21.99 3.15365V11.0591Z" fill="black"/>
<path fill-rule="evenodd" clip-rule="evenodd" d="M18.8546 23.6927C20.5897 23.6927 21.99 25.1012 21.99 26.8464C21.99 28.5915 20.5897 30 18.8546 30C17.1196 30 15.7192 28.5915 15.7192 26.8464V23.6927H18.8546ZM18.8546 22.1182C17.1196 22.1182 15.7192 20.7098 15.7192 18.9646C15.7192 17.2194 17.1196 15.8109 18.8546 15.8109H26.7143C28.4494 15.8109 29.8497 17.2194 29.8497 18.9646C29.8497 20.7098 28.4494 22.1182 26.7143 22.1182H18.8546Z" fill="black"/>
</g>
<defs>
<clipPath id="clip0_202_67">
<rect width="117.872" height="30" fill="white"/>
</clipPath>
</defs>
</svg>
